# xmcd
#
# Track frame offsets: 
#        150
#        17290
#        33812
#        50255
#        70650
#        97355
#        119180
#        135195
#        154030
#        172425
#        191092
#        209275
#        236145
#        252002
#        264390
#        289160
#        319462
#        334755
#
# Disc length: 4754 seconds
#
# Revision: 0
# Processed by: cddbd v1.5.2PL0 Copyright (c) Steve Scherf et al.
# Submitted via: ExactAudioCopy v0.99pb4
#
DISCID=0c129012
DTITLE=Various Artist - Beach 'N' Boogie, Vol. 1
DYEAR=1997
DGENRE=Blues
TTITLE0=Shakin' Dem Bones - U.P. Wilson 
TTITLE1=She's the One for Me - Kenny Parker 
TTITLE2=Here We Go - Johnny Rawls 
TTITLE3=Fine as Wine - Joe Coronado 
TTITLE4=Talkin' About Love - The Butler Twins 
TTITLE5=How Much Longer - Deitra Farr 
TTITLE6=They Killed Crazy Horse - Joe Houston/Otis Grand 
TTITLE7=In All of My Life - Kenny "Blue" Ray 
TTITLE8=Hey Brother - Jimmy Morello 
TTITLE9=Aunt Nancey's Bull - The Griswolds 
TTITLE10=Hoochie Mama - Andrew "Jr. Boy" Jones 
TTITLE11=Hot and Saucy, Short and Grand - Guitar Shorty/Otis Grand 
TTITLE12=You Must Be Crazy - Nappy Brown 
TTITLE13=Down and Out - Charlie Sayles 
TTITLE14=Bluesmobile - Otis Grand/Phillip Walker 
TTITLE15=Mo's Stroll - George "Mojo" Buford 
TTITLE16=Roll Over - U.P. Wilson 
TTITLE17=You Need to Know - Alanda Williams 
EXTD=
EXTT0=
EXTT1=
EXTT2=
EXTT3=
EXTT4=
EXTT5=
EXTT6=
EXTT7=
EXTT8=
EXTT9=
EXTT10=
EXTT11=
EXTT12=
EXTT13=
EXTT14=
EXTT15=
EXTT16=
EXTT17=
PLAYORDER=
